<svg

  stroke-linecap="round"
  stroke-linejoin="round"
  stroke-width="2"
  viewBox="0 0 37 37"
  fill="currentColor"
>
  <g id="Layer_2" data-name="Layer 2"><g id="Layer_1-2" data-name="Layer 1"><path class="cls-1" d="M29.05,27.9a22.13,22.13,0,0,1-10.59,4.8,22.16,22.16,0,0,1-18-4.81,1,1,0,0,1-.45-1A17.37,17.37,0,0,1,1.24,21.7,9.37,9.37,0,0,1,4,18.11c.41-.33.86-.6,1.29-.89l0,0,.08,0,.07,0A3.15,3.15,0,0,1,5.84,17l0,0,.37-.18h0l.27-.12c.21-.09.43-.19.65-.27a5.82,5.82,0,0,1,1.92-.58h0A3.36,3.36,0,0,1,11,16a13,13,0,0,0,1.45.48l.11,0a9.8,9.8,0,0,0,1.61.25l.28,0a4.15,4.15,0,0,0,1,0,23.67,23.67,0,0,0,3.2-.77l.11,0,.17,0h0a3.13,3.13,0,0,1,1.82-.1,10.34,10.34,0,0,1,1,.3l.12,0a12.4,12.4,0,0,1,2,.87,10.18,10.18,0,0,1,4.2,4.25,16.2,16.2,0,0,1,1.54,5.22A1.38,1.38,0,0,1,29.05,27.9Z"/><path class="cls-1" d="M5.87,16.94l0,0,0,0Z"/><path class="cls-1" d="M6.53,16.63l-.27.12s0,0,0,0Z"/><path class="cls-1" d="M15.46,16.74a4.15,4.15,0,0,1-1,0C14.79,16.75,15.12,16.76,15.46,16.74Z"/><path class="cls-1" d="M14.76,14a7,7,0,1,1,7-6.95A7,7,0,0,1,14.76,14Z"/></g></g>
</svg>